/* XPM */
static char * D:\_DEVELOPER_\_PROJECTs_\_GITHUB_\xls_sorting\icon_app_xpm[] = {
"36 36 278 2",
"  	c #B7D8BA",
". 	c #009400",
"+ 	c #FFFFFF",
"@ 	c #7A7A7A",
"# 	c #FDFEFF",
"$ 	c #F1F6FF",
"% 	c #EFF4FF",
"& 	c #009426",
"* 	c #009562",
"= 	c #009686",
"- 	c #0099E2",
"; 	c #009AEE",
"> 	c #E2ECFF",
", 	c #62ABFD",
"' 	c #2A96F1",
") 	c #0E92EF",
"! 	c #62ABFC",
"~ 	c #E5EEFF",
"{ 	c #86BAFF",
"] 	c #62ABFF",
"^ 	c #029AFB",
"/ 	c #148CE5",
"( 	c #2A5A8C",
"_ 	c #2D4C71",
": 	c #158BE3",
"< 	c #0C93EF",
"[ 	c #009681",
"} 	c #0099E5",
"| 	c #0C93F1",
"1 	c #2B5A88",
"2 	c #2D4B3E",
"3 	c #2D492E",
"4 	c #2E4A3E",
"5 	c #2E4B6B",
"6 	c #FBFCFF",
"7 	c #81B7FF",
"8 	c #279DFD",
"9 	c #87898E",
"0 	c #E3E3E3",
"a 	c #EFEFEF",
"b 	c #E2E2E3",
"c 	c #8B8C8C",
"d 	c #304B41",
"e 	c #3B6290",
"f 	c #269EFF",
"g 	c #8BBCFF",
"h 	c #D4E3FF",
"i 	c #3B5F8D",
"j 	c #6B6E72",
"k 	c #2A572C",
"l 	c #E5E5E6",
"m 	c #FDFDFD",
"n 	c #FBFBFD",
"o 	c #F0F0F1",
"p 	c #2A8737",
"q 	c #818DA1",
"r 	c #2A8FE7",
"s 	c #029AFD",
"t 	c #38A1FF",
"u 	c #9CC4FE",
"v 	c #F3F7FF",
"w 	c #009569",
"x 	c #009BFD",
"y 	c #009AF3",
"z 	c #0C93F2",
"A 	c #2B5D8D",
"B 	c #2A573C",
"C 	c #158515",
"D 	c #0C8C0F",
"E 	c #029214",
"F 	c #03940A",
"G 	c #0B941C",
"H 	c #079417",
"I 	c #1E9433",
"J 	c #378B60",
"K 	c #2A67A0",
"L 	c #138BE6",
"M 	c #1691E3",
"N 	c #27918B",
"O 	c #0D932F",
"P 	c #009BFF",
"Q 	c #6981A6",
"R 	c #E3E4E6",
"S 	c #FDFDFF",
"T 	c #279640",
"U 	c #EDEEF0",
"V 	c #858895",
"W 	c #395179",
"X 	c #475A78",
"Y 	c #9EA0A4",
"Z 	c #F3F3F3",
"` 	c #69A7F4",
" .	c #EFF3FD",
"..	c #1A9253",
"+.	c #EFF2F9",
"@.	c #D5D7E5",
"#.	c #86878D",
"$.	c #8A8A8B",
"%.	c #E1E2E3",
"&.	c #FCFCFC",
"*.	c #009AF1",
"=.	c #0C92E0",
"-.	c #029461",
";.	c #00931C",
">.	c #004EFE",
",.	c #01931D",
"'.	c #029321",
").	c #0E9153",
"!.	c #149249",
"~.	c #07913A",
"{.	c #0F8B32",
"].	c #0E8C18",
"^.	c #0D9315",
"/.	c #049407",
"(.	c #148BE3",
"_.	c #2A5A90",
":.	c #2D4C72",
"<.	c #717C91",
"[.	c #EFF0F2",
"}.	c #FEFEFF",
"|.	c #1C52FF",
"1.	c #014DFE",
"2.	c #3C3D44",
"3.	c #FEFEFE",
"4.	c #04904C",
"5.	c #69ADFC",
"6.	c #3D5271",
"7.	c #6A6C73",
"8.	c #707071",
"9.	c #8F8F91",
"0.	c #F1F1F1",
"a.	c #FCFCFF",
"b.	c #333445",
"c.	c #FCFCFE",
"d.	c #FCFDFF",
"e.	c #009149",
"f.	c #FAFAFF",
"g.	c #148BD2",
"h.	c #2D4A3D",
"i.	c #2A562E",
"j.	c #18842F",
"k.	c #1B8B34",
"l.	c #0F8A43",
"m.	c #029227",
"n.	c #004DFF",
"o.	c #0050FC",
"p.	c #01922E",
"q.	c #019415",
"r.	c #00940C",
"s.	c #778091",
"t.	c #6B6D72",
"u.	c #8C8C8C",
"v.	c #FCFCFD",
"w.	c #F8F8FF",
"x.	c #F8F9FF",
"y.	c #024CFC",
"z.	c #292D34",
"A.	c #F2F2F2",
"B.	c #A6A6A6",
"C.	c #029302",
"D.	c #FBFCFE",
"E.	c #283034",
"F.	c #282A3D",
"G.	c #33343C",
"H.	c #292C29",
"I.	c #A2C7FF",
"J.	c #009560",
"K.	c #0A8E0A",
"L.	c #069412",
"M.	c #069328",
"N.	c #019140",
"O.	c #009145",
"P.	c #019301",
"Q.	c #019220",
"R.	c #028F44",
"S.	c #039046",
"T.	c #0A932B",
"U.	c #069430",
"V.	c #019562",
"W.	c #009AEC",
"X.	c #009568",
"Y.	c #2A57FF",
"Z.	c #F9FAFE",
"`.	c #EBF0FF",
" +	c #139572",
".+	c #DFEAFF",
"++	c #85B9FF",
"@+	c #6AA8F4",
"#+	c #F7F8FF",
"$+	c #333333",
"%+	c #F0F4FE",
"&+	c #89BAFF",
"*+	c #049AEF",
"=+	c #60ABFF",
"-+	c #6F86A9",
";+	c #0C8D2A",
">+	c #029414",
",+	c #029415",
"'+	c #089333",
")+	c #04914C",
"!+	c #0A93E2",
"~+	c #148CE3",
"{+	c #276569",
"]+	c #F0F5FF",
"^+	c #04946B",
"/+	c #F7F8FE",
"(+	c #F5F6FE",
"_+	c #6E85A9",
":+	c #E0EAFD",
"<+	c #84B8FE",
"[+	c #0198E5",
"}+	c #D4E0FE",
"|+	c #EFF2FB",
"1+	c #6E85AA",
"2+	c #0A94F4",
"3+	c #8B96A9",
"4+	c #04955B",
"5+	c #139AD7",
"6+	c #049BFB",
"7+	c #0899E6",
"8+	c #22976F",
"9+	c #279641",
"0+	c #0C9422",
"a+	c #01940C",
"b+	c #029481",
"c+	c #0B93E5",
"d+	c #0498FB",
"e+	c #138CE5",
"f+	c #2766A2",
"g+	c #0D90E0",
"h+	c #0C8D62",
"i+	c #029305",
"j+	c #787B7F",
"k+	c #6881A5",
"l+	c #2B91E8",
"m+	c #2C99F5",
"n+	c #6F8AB1",
"o+	c #7A7E85",
"p+	c #7A7A7C",
"q+	c #7A7B7D",
"r+	c #7A7A7B",
"s+	c #787B80",
"t+	c #737E93",
"u+	c #6B83A7",
"v+	c #3A95EA",
"w+	c #0E99FB",
"x+	c #2E5989",
"y+	c #3D4553",
"z+	c #314A6C",
"A+	c #3F5472",
"B+	c #737579",
"C+	c #AFCFB2",
"D+	c #2A653D",
"E+	c #2A5C87",
"F+	c #069AFB",
"G+	c #189BE7",
"H+	c #21988E",
"I+	c #0A9566",
"J+	c #049434",
"K+	c #2A573B",
"L+	c #1A7D1B",
"M+	c #2A572B",
"N+	c #2A592A",
"O+	c #0C8C0D",
"P+	c #B5D6B8",
"Q+	c #138614",
"R+	c #87898C",
"S+	c #2B96F1",
"T+	c #60AAFC",
"U+	c #0B9688",
"V+	c #EEF4FF",
"W+	c #E5E5E5",
"X+	c #FBFBFB",
"Y+	c #0499EE",
"Z+	c #68ADFF",
"`+	c #0C8C0C",
" @	c #727272",
".@	c #0E8B0E",
"                                                                        ",
"  . . . . . . . . . . . . . . . . . . . . . . . . . . . . .             ",
"  . + + + + + + . + + + + + + . + + + + + + . + + + + + + . @           ",
"  . + + + + + + . + + + + + + . # $ % % $ # . + + + + + + . @           ",
"  . . . . . . . . . . . . . & * = - ; ; - = * & . . . . . . @           ",
"  . + + + + + + . + + + # $ > - , ' ) ) ' ! - > $ # + + + . @           ",
"  . + + + + + + . + + # ~ { ] ^ / ( _ _ ( : < , { ~ # + + . @           ",
"  . . . . . . . . . & [ } ^ | : 1 2 3 3 4 5 ( / ^ } [ & . . @           ",
"  . + + + + # $ * 6 ~ 7 8 / ( 5 9 0 a a b c d e | f 7 ~ # . @           ",
"  . + + + + $ g - h 7 8 / i j k l m + + n o p q r s t u v . @ . . . .   ",
"  . . . . . w ; x y x z A B C D E . . F G H I J K L M N O . @ . + + . @ ",
"  . + + + # > ] P P P z Q R m . + + + + S S T U V W X Y Z . @ . + + . @ ",
"  . + + + $ { f P P P s `  .+ . + + + + + S ..+.@.#.$.%.&.. @ . . . . @ ",
"  . . . & = *.P P s z ) =.-.. . ;.>.>.,.. '.).!.~.{.].^./.. @ . + + . @ ",
"  . + + $ { f s | (._.:.<.[.+ . }.|.1.2.3.}.4.6 }.}.+ + + . @ . + + . @ ",
"  . + + % 5.| : ( 6.7.8.9.0.}.;.a.|.1.b.c.d.e.f.S + + + + . @ . . . . @ ",
"  . . . -.g.( 5 h.i.j.k.l.m.>.>.>.n.n.1.>.o.p.q.r.. . . . . @ . + + . @ ",
"  . + + [.s.t.u.C 0.v.d.w.x.|.1.1.n.n.1.1.y.z.}.+ + + # v & @ . + + . @ ",
"  . + + A.B.0 0.C.+ }.D.x.6 c.E.b.1.1.F.G.G.H.}.+ # $ > I.J.@ . . . . @ ",
"  . . . C.K.C.. . . L.M.N.O.;.P.Q.>.1.z.R.S.T.U.V.= - *.W.X.@ . + + . @ ",
"  . + + + + + + . + }.S }.}.+ . }.Y.y.G.Z.`. +.+++] f s @+-.@ . + + . @ ",
"  . + + + + + + F S f.#+}.+ + . + c.G.$+%+&+*+=+f P P z -+;+@ . . . . @ ",
"  . . . . . . . >+,+'+)+;.. . . . . . . -.!+s P P P s ~+{+D @ . + + . @ ",
"  . + + + + d.]+^+x./+(+S + + . + + + + [._+z P P P z Q R C.@ . + + . @ ",
"  . + + + d.:+<+[+}+|+(+S + + . + + + + [.1+z s 2+s ' 3+0.. @ . . . . @ ",
"  . . . . 4+5+6+x 7+8+9+0+'.a+. . . . & b+c+d+e+f+: g+h+i+. @ . + + . @ ",
"    @ @ @ j+k+l+s m+n+o+p+q+r+@ @ s+t+u+v+w+/ x+y+z+A+B+@ @ @ . + + . @ ",
"          C+D+E+/ F+G+H+I+J+a+. & [ - *.^ / 1 K+L+M+N+O+. . . . . . . @ ",
"          P+Q+R+i : S+T+++U+% V+> 7 8 | : i R+W+X+0.0.C.+ + + + + + . @ ",
"            C.W+R+6.( : ' Y+Z+Z+! ' : ( 5 R+W+m + + + . + + + + + + . @ ",
"            . C.Q+M+h.5 ( : ) ) : ( 5 h.M+Q+C.. . . . . . . . . . . . @ ",
"            . + m 0.0 u.t.5 _ _ 6.t.u.0 `+m + + + + + . + + + + + + . @ ",
"            . + + + m 0.0 M+ @ @u.0 0.m . + + + + + + . + + + + + + . @ ",
"            . . . . . . C.`+.@.@`+C.. . . . . . . . . . . . . . . . . @ ",
"              @ @ @ @ @ @ @ @ @ @ @ @ @ @ @ @ @ @ @ @ @ @ @ @ @ @ @ @ @ ",
"                                                                        "};
